<svg width="33" height="32" viewBox="0 0 33 32" fill="none" xmlns="http://www.w3.org/2000/svg">
<g opacity="0.4">
<path d="M25.8454 17.487C25.8325 17.487 25.8207 17.4905 25.8079 17.4906C26.0448 16.9427 26.1775 16.3392 26.1775 15.7043C26.1775 13.2148 24.1593 11.1965 21.6697 11.1965C20.7898 11.1965 19.9715 11.4525 19.2777 11.8885C18.3391 9.60737 16.097 7.99999 13.4774 7.99999C10.0133 7.99999 7.20531 10.808 7.20531 14.272C7.20531 14.5338 7.22651 14.7903 7.25769 15.0436C7.24002 15.0435 7.22297 15.041 7.20531 15.041C4.88288 15.041 3 16.9238 3 19.2464C3 21.5688 4.88288 23.4516 7.20531 23.4516H25.8454C27.4926 23.4516 28.8278 22.1165 28.8278 20.4693C28.8278 18.8221 27.4926 17.487 25.8454 17.487Z" fill="white"/>
</g>
</svg>
